<svg xmlns="http://www.w3.org/2000/svg" version="1.1" xmlns:xlink="http://www.w3.org/1999/xlink" xmlns:svgjs="http://svgjs.dev/svgjs" width="128" height="128" viewBox="0 0 128 128"><g transform="matrix(0.20275590551181102,0,0,0.20275590551181102,51.07188997050026,12.333870967741944)"><svg viewBox="0 0 39 155" data-background-color="#ffffff" preserveAspectRatio="xMidYMid meet" height="508" width="128" xmlns="http://www.w3.org/2000/svg" xmlns:xlink="http://www.w3.org/1999/xlink"><g id="tight-bounds" transform="matrix(1,0,0,1,-0.07253368443197417,0.25)"><svg viewBox="0 0 39.145067368863955 154.5" height="154.5" width="39.145067368863955"><g><svg></svg></g><g><svg viewBox="0 0 39.145067368863955 154.5" height="154.5" width="39.145067368863955"><g transform="matrix(1,0,0,1,0,47.74637100000001)"><svg viewBox="0 0 39.145067368863955 59.007257999999986" height="59.007257999999986" width="39.145067368863955"><g><svg viewBox="0 0 39.145067368863955 59.007257999999986" height="59.007257999999986" width="39.145067368863955"><g><svg viewBox="0 0 39.145067368863955 59.007257999999986" height="59.007257999999986" width="39.145067368863955"><g id="textblocktransform"><svg viewBox="0 0 39.145067368863955 59.007257999999986" height="59.007257999999986" width="39.145067368863955" id="textblock"><g><svg viewBox="0 0 39.145067368863955 59.007257999999986" height="59.007257999999986" width="39.145067368863955"><g transform="matrix(1,0,0,1,0,0)"><svg width="39.145067368863955" viewBox="2.85 -35.3 23.65 35.65" height="59.007257999999986" data-palette-color="#35185a"><path d="M14.9 0.35Q11.45 0.35 8.72-0.88 6-2.1 4.45-4.28 2.9-6.45 2.85-9.3L2.85-9.3 7.7-9.3Q7.95-6.85 9.73-5.18 11.5-3.5 14.9-3.5L14.9-3.5Q18.15-3.5 20.03-5.13 21.9-6.75 21.9-9.3L21.9-9.3Q21.9-11.3 20.8-12.55 19.7-13.8 18.05-14.45 16.4-15.1 13.6-15.85L13.6-15.85Q10.15-16.75 8.08-17.65 6-18.55 4.53-20.48 3.05-22.4 3.05-25.65L3.05-25.65Q3.05-28.5 4.5-30.7 5.95-32.9 8.58-34.1 11.2-35.3 14.6-35.3L14.6-35.3Q19.5-35.3 22.63-32.85 25.75-30.4 26.15-26.35L26.15-26.35 21.15-26.35Q20.9-28.35 19.05-29.88 17.2-31.4 14.15-31.4L14.15-31.4Q11.3-31.4 9.5-29.93 7.7-28.45 7.7-25.8L7.7-25.8Q7.7-23.9 8.78-22.7 9.85-21.5 11.43-20.88 13-20.25 15.85-19.45L15.85-19.45Q19.3-18.5 21.4-17.57 23.5-16.65 25-14.73 26.5-12.8 26.5-9.5L26.5-9.5Q26.5-6.95 25.15-4.7 23.8-2.45 21.15-1.05 18.5 0.35 14.9 0.35L14.9 0.35Z" opacity="1" transform="matrix(1,0,0,1,0,0)" fill="#000000" class="undefined-text-0" data-fill-palette-color="primary" id="text-0"></path></svg></g></svg></g></svg></g></svg></g><g></g></svg></g></svg></g><path d="M0 41.746L0 1 39.145 1 39.145 41.746 33.824 41.746 33.824 6.321 5.321 6.321 5.321 41.746 0 41.746M0 112.754L0 153.5 39.145 153.5 39.145 112.754 33.824 112.754 33.824 148.179 5.321 148.179 5.321 112.754 0 112.754" fill="#000000" stroke="transparent" data-fill-palette-color="primary"></path></svg></g><defs></defs></svg><rect width="39.145067368863955" height="154.5" fill="none" stroke="none" visibility="hidden"></rect></g></svg></g></svg>